<svg xmlns="http://www.w3.org/2000/svg" width="58" height="53" viewBox="0 0 58 53">
  <g id="Group_5649" data-name="Group 5649" transform="translate(-1471 -140)">
    <rect id="Rectangle_65" data-name="Rectangle 65" width="58" height="53" rx="26.5" transform="translate(1471 140)" fill="#2bd675"/>
    <path id="whatsapp_6_" data-name="whatsapp (6)" d="M266.566,7459.141a4.023,4.023,0,0,1-2.8,2.014c-.746.156-1.719.284-5-1.075-3.681-1.524-8.793-6.958-8.793-10.573,0-1.841,1.061-3.984,2.917-3.984.893,0,1.09.018,1.384.723.344.831,1.182,2.876,1.282,3.086.412.86-.419,1.364-1.023,2.113-.193.226-.411.47-.167.889a12.616,12.616,0,0,0,2.313,2.874,10.442,10.442,0,0,0,3.345,2.064.9.9,0,0,0,1.006-.158,17.658,17.658,0,0,0,1.115-1.477.794.794,0,0,1,1.023-.312,29.266,29.266,0,0,1,3.637,1.838,3.535,3.535,0,0,1-.242,1.979m-8.3-20.142h-.007a14.252,14.252,0,0,0-11.543,22.621l-1.777,5.3,5.481-1.754a14.13,14.13,0,0,0,7.846,2.356,14.263,14.263,0,0,0,0-28.526" transform="translate(1242.155 -7286.52)" fill="#fff" fill-rule="evenodd"/>
  </g>
</svg>
